<?xml version="1.0" encoding="UTF-8" standalone="no"?>
<svg
        role="img"
        width="24"
        height="24"
        fill="none"
        viewBox="0 0 24 24"
        xmlns="http://www.w3.org/2000/svg"
>
  <path
     fill="#99aab5"
     fill-rule="evenodd"
     d="M 3.47,5.18 C 3.74,4.78 4.11,4.44 4.57,4.22 l 6.09,-3.05 a 3,3 0 0 1 2.68,0 l 6.1,3.05 A 2.83,2.83 0 0 1 21,6.75 v 3.5 a 14.17,14.17 0 0 1 -8.42,12.5 c -0.37,0.16 -0.79,0.16 -1.16,0 A 14.18,14.18 0 0 1 3,9.77 V 6.75 C 3,6.18 3.17,5.64 3.47,5.18 Z m 2.95,10.3 A 12.18,12.18 0 0 0 12,20.82 12.18,12.18 0 0 0 17.58,15.5 9.49,9.49 0 0 0 12.47,14 H 11.53 C 9.65,14 7.9,14.55 6.42,15.49 Z M 12,13 a 4,4 0 1 0 0,-8 4,4 0 0 0 0,8 z"
     clip-rule="evenodd"
     class=""
     id="path2"
     style="fill:#2b6b93;fill-opacity:1" />
  <path
     fill="#ffffff"
     d="m 22.24735,11.22736 c -0.560507,-0.364136 -1.311082,-0.204615 -1.676671,0.356862 l -5.278263,8.135583 -2.438396,-2.254631 c -0.491656,-0.454805 -1.258715,-0.424258 -1.713035,0.06692 -0.454321,0.491657 -0.424259,1.258716 0.06739,1.713035 l 3.495407,3.232124 c 0.232736,0.215765 0.528505,0.322436 0.822335,0.322436 0.326315,0 0.743785,-0.136732 1.017735,-0.552264 0.160976,-0.245342 6.060838,-9.343386 6.060838,-9.343386 0.364135,-0.561961 0.204129,-1.312536 -0.357346,-1.676671 z"
     id="path239"
     style="fill:#619343;fill-opacity:1;stroke-width:0.484867" />
</svg>
